<svg width="692" height="246" fill="none" xmlns="http://www.w3.org/2000/svg"><path d="M18 25c0 80.025 83.562 152.166 191.142 152.166C370.262 177.166 689 59.691 689 243" stroke="#fff" stroke-width="5" stroke-miterlimit="3.864" stroke-linecap="round" stroke-dasharray="20 20"/><path d="M18 4v21" stroke="#fff" stroke-width="5" stroke-linecap="round" stroke-linejoin="round"/><path d="M1.232 16.232a2.5 2.5 0 0 0 3.536 3.536l-3.536-3.536ZM18 3l1.768-1.768a2.5 2.5 0 0 0-3.536 0L18 3Zm13.232 16.768a2.5 2.5 0 0 0 3.536-3.536l-3.536 3.536Zm-26.464 0 15-15-3.536-3.536-15 15 3.536 3.536Zm11.464-15 15 15 3.536-3.536-15-15-3.536 3.536Z" fill="#fff"/></svg>