<svg width="20" height="20" fill="none" xmlns="http://www.w3.org/2000/svg"><path d="M19.072 4.413L10.09.029a.287.287 0 00-.253 0L.853 4.413a.293.293 0 00-.164.264v10.646c0 .113.064.215.164.264l8.983 4.384a.288.288 0 00.252 0l8.984-4.384a.293.293 0 00.164-.264V4.677a.293.293 0 00-.164-.264zM9.962.618l8.317 4.059-2.41 1.176a.284.284 0 00-.05-.031l-8.26-4.03L9.962.617zM6.904 2.122l8.305 4.053-1.7.83-8.302-4.05 1.697-.833zm8.5 4.609v3.068l-1.59.775V7.506l1.59-.775zm3.252 8.408l-8.404 4.101V9.244l2.005-.978a.294.294 0 00.135-.39.288.288 0 00-.387-.137l-2.043.996-.803-.392a.288.288 0 00-.387.137c-.07.145-.01.32.135.39l.766.374v9.996l-8.404-4.1V5.143l6.4 3.122c.04.02.083.03.125.03a.294.294 0 00.126-.557L1.645 4.677l2.88-1.405L13.23 7.52l.004.005v3.516a.294.294 0 00.29.293c.043 0 .086-.01.126-.03l2.168-1.057a.293.293 0 00.164-.264V6.448l2.673-1.304v9.995z" fill="#EC4557"/></svg>