<svg width="15" height="15" fill="none" xmlns="http://www.w3.org/2000/svg"><path d="M12.004 10.722L9.615 9.528a.658.658 0 01-.365-.591v-.845a5.723 5.723 0 00.918-1.687.992.992 0 00.582-.905v-1c0-.24-.09-.474-.25-.656v-1.33c.014-.137.069-.956-.523-1.631C9.463.297 8.63 0 7.5 0S5.537.297 5.023.882c-.592.676-.537 1.495-.523 1.632v1.33a.997.997 0 00-.25.656v1c0 .304.138.588.374.777.23.907.708 1.59.876 1.81v.827a.66.66 0 01-.344.58l-2.23 1.216a2.255 2.255 0 00-1.176 1.98v.81c0 1.187 3.761 1.5 5.75 1.5 1.989 0 5.75-.313 5.75-1.5v-.76c0-.86-.478-1.633-1.246-2.018z" fill="#6DB056"/></svg>