<svg width="45" height="30" fill="none" xmlns="http://www.w3.org/2000/svg"><rect x=".25" y=".25" width="44.5" height="29.5" rx="3.75" fill="#fff" stroke="#D2D2D2" stroke-width=".5"/><path d="M13.912 25.633v-1.374a.806.806 0 00-.236-.63.826.826 0 00-.635-.24.866.866 0 00-.779.389.81.81 0 00-.732-.39.74.74 0 00-.65.326v-.27h-.48v2.189h.486v-1.205a.507.507 0 01.133-.417.518.518 0 01.41-.164c.32 0 .482.206.482.577v1.218h.486v-1.214a.51.51 0 01.32-.543.528.528 0 01.223-.038c.329 0 .487.206.487.577v1.218l.486-.01zm7.201-2.19h-.792v-.663h-.487v.664h-.44v.435h.45v1.007c0 .509.199.81.769.81a1.12 1.12 0 00.602-.169l-.139-.407a.897.897 0 01-.426.123c-.232 0-.32-.146-.32-.366v-.998h.788l-.005-.435zm4.112-.054a.66.66 0 00-.584.32v-.265h-.477v2.189h.482v-1.228c0-.361.157-.563.463-.563a.793.793 0 01.301.055l.149-.458a1.043 1.043 0 00-.343-.06l.009.01zm-6.216.229a1.673 1.673 0 00-.904-.23c-.56 0-.927.266-.927.701 0 .358.269.578.765.646l.232.032c.264.037.389.105.389.23 0 .169-.176.265-.505.265a1.19 1.19 0 01-.737-.23l-.232.372c.28.194.617.293.96.284.64 0 1.01-.298 1.01-.715 0-.416-.292-.586-.774-.655l-.232-.032c-.208-.027-.375-.068-.375-.215 0-.146.157-.256.421-.256.245.002.484.067.696.187l.213-.384zm12.912-.23a.66.66 0 00-.584.321v-.265h-.478v2.189h.482v-1.228c0-.361.158-.563.464-.563a.794.794 0 01.301.055l.149-.458a1.043 1.043 0 00-.343-.06l.009.01zm-6.212 1.146a1.094 1.094 0 00.335.83 1.122 1.122 0 00.848.314c.289.015.573-.078.797-.26l-.232-.385a.98.98 0 01-.58.197.715.715 0 01-.465-.224.699.699 0 010-.954.714.714 0 01.466-.224c.21.003.412.072.579.197l.232-.384a1.168 1.168 0 00-.797-.261 1.133 1.133 0 00-.848.314 1.106 1.106 0 00-.335.83v.01zm4.515 0v-1.09h-.482v.265a.84.84 0 00-.695-.32c-.307 0-.602.12-.82.335a1.138 1.138 0 000 1.62c.218.214.513.334.82.334a.849.849 0 00.695-.32v.266h.482v-1.09zm-1.794 0a.657.657 0 01.44-.583.678.678 0 01.715.166.66.66 0 01-.483 1.117.672.672 0 01-.634-.434.65.65 0 01-.038-.266zm-5.817-1.145a1.17 1.17 0 00-.815.346 1.138 1.138 0 00.023 1.62c.22.211.517.328.824.323.334.017.662-.089.92-.297l-.231-.353c-.183.145-.41.226-.645.23a.62.62 0 01-.441-.136.605.605 0 01-.221-.4h1.645v-.184c0-.687-.43-1.145-1.052-1.145l-.007-.004zm0 .426a.554.554 0 01.515.324.537.537 0 01.046.207h-1.159a.56.56 0 01.185-.384c.11-.1.255-.152.404-.147h.009zm12.078.723v-1.974h-.464v1.145a.84.84 0 00-.695-.32c-.308 0-.602.12-.82.335a1.138 1.138 0 000 1.62c.218.214.512.334.82.334a.849.849 0 00.695-.32v.266h.464v-1.086zm.804.776a.232.232 0 01.16.062.211.211 0 01-.072.353.22.22 0 01-.088.018.233.233 0 01-.209-.133.213.213 0 01.12-.284.234.234 0 01.096-.015h-.007zm0 .387a.165.165 0 00.12-.05.168.168 0 000-.229.169.169 0 00-.188-.037.17.17 0 00-.055.037.168.168 0 000 .23.173.173 0 00.056.036c.023.01.048.014.074.013h-.007zm.014-.272a.093.093 0 01.06.018.057.057 0 01.02.048.054.054 0 01-.015.042.082.082 0 01-.05.02l.068.076h-.053l-.063-.076h-.02v.076h-.045v-.202l.098-.002zm-.051.039v.055h.05a.049.049 0 00.028 0 .023.023 0 00.003-.01c0-.004 0-.008-.003-.01a.023.023 0 00.003-.011c0-.004 0-.007-.003-.01a.049.049 0 00-.027 0l-.051-.014zm-2.55-.93a.657.657 0 01.44-.582.679.679 0 01.715.166.66.66 0 01-.483 1.117.673.673 0 01-.49-.205.656.656 0 01-.182-.496zm-16.277 0v-1.094h-.482v.265a.84.84 0 00-.695-.32c-.308 0-.603.12-.82.335a1.138 1.138 0 000 1.62c.217.214.512.334.82.334a.849.849 0 00.695-.32v.266h.482v-1.086zm-1.794 0a.657.657 0 01.44-.582.678.678 0 01.715.166.658.658 0 01-.116 1.006.676.676 0 01-.367.11.673.673 0 01-.494-.203.655.655 0 01-.183-.497h.005z" fill="#231F20"/><path d="M26.15 6.763h-7.301v12.962h7.3V6.763z" fill="#FF5F00"/><path d="M19.313 13.245a8.146 8.146 0 01.837-3.604 8.249 8.249 0 012.35-2.878 8.433 8.433 0 00-8.803-.933 8.31 8.31 0 00-3.426 3.04A8.17 8.17 0 009 13.245a8.17 8.17 0 001.271 4.373 8.31 8.31 0 003.426 3.041 8.434 8.434 0 008.802-.933 8.248 8.248 0 01-2.349-2.877 8.147 8.147 0 01-.837-3.603z" fill="#EB001B"/><path d="M36 13.245a8.17 8.17 0 01-1.271 4.374 8.31 8.31 0 01-3.427 3.04 8.433 8.433 0 01-8.803-.934 8.262 8.262 0 002.35-2.878 8.16 8.16 0 000-7.206 8.262 8.262 0 00-2.35-2.878 8.433 8.433 0 018.803-.934 8.31 8.31 0 013.427 3.04A8.17 8.17 0 0136 13.244v.002zm-.797 5.107v-.266h.109v-.055h-.276v.055h.118v.266h.049zm.535 0v-.32h-.083l-.098.228-.097-.229h-.074v.32h.06v-.24l.09.209h.063l.09-.209v.243l.05-.002z" fill="#F79E1B"/></svg>