<svg width="63" height="22" fill="none" xmlns="http://www.w3.org/2000/svg"><path fill-rule="evenodd" clip-rule="evenodd" d="M58.814 8.727a1.152 1.152 0 01.753-1.032 1.171 1.171 0 011.25.283 1.154 1.154 0 01-.839 1.957 1.181 1.181 0 01-1.088-.751 1.16 1.16 0 01-.076-.457zm1.164.945a.912.912 0 00.821-.581.896.896 0 00.058-.347.908.908 0 00-.249-.643.92.92 0 00-.63-.286.937.937 0 00-.66.272.926.926 0 00.66 1.585zm-.161-.402h-.244V8.2h.44a.463.463 0 01.264.051.294.294 0 01.124.263.268.268 0 01-.179.263l.196.475h-.265l-.158-.42h-.178v.437zm0-.598h.144a.363.363 0 00.14-.017.136.136 0 00.052-.123.122.122 0 00-.051-.102.345.345 0 00-.141-.02h-.124l-.02.262zM42.165.653l-.32 2.065a3.554 3.554 0 00-1.745-.505c-1.442 0-2.466 1.468-2.466 3.554 0 1.437.687 2.311 1.817 2.311a3.685 3.685 0 001.656-.491l-.344 2.17a5.63 5.63 0 01-1.717.284c-2.099 0-3.4-1.577-3.4-4.096 0-3.397 1.796-5.78 4.386-5.78a3.33 3.33 0 01.879.106l.81.211.444.174V.653zm-6.468 1.424a.563.563 0 00-.193-.02c-.635 0-1.006.34-1.604 1.262l.175-1.174h-1.762l-1.199 7.722h1.958c.705-4.728.88-5.534 1.814-5.534h.14c.129-.78.378-1.535.74-2.24l-.07-.016zM24.049 9.758a4.246 4.246 0 01-1.391.263c-.986 0-1.532-.594-1.532-1.707.001-.234.018-.468.051-.7l.124-.755.09-.61.844-5.275h1.938l-.23 1.14h1.006l-.282 1.874h-.986l-.511 3.223c-.018.14-.035.242-.035.314 0 .403.21.577.667.577.179.009.358-.014.529-.068l-.282 1.707v.017zm-7.68-5.182c0 .98.456 1.645 1.48 2.154.773.385.914.508.914.857 0 .474-.344.703-1.11.703a4.904 4.904 0 01-1.745-.318l-.264 1.786.089.02.343.069c.124.017.282.05.509.071.46.034.831.069 1.075.069 2.044 0 2.995-.823 2.995-2.575 0-1.051-.385-1.68-1.374-2.154-.81-.385-.896-.47-.896-.84 0-.42.316-.631.951-.631.466.012.93.053 1.391.123l.282-1.786a11.98 11.98 0 00-1.717-.157c-2.202 0-2.958 1.171-2.94 2.609h.017zm41.318 5.271h-1.851l.089-.752a2.264 2.264 0 01-1.797.857c-1.428 0-2.363-1.28-2.363-3.205C51.765 4.173 53.211 2 54.94 2c.756 0 1.319.342 1.865 1.052l.423-2.714h1.923l-1.463 9.508zm-2.872-1.803c.914 0 1.55-1.069 1.55-2.612 0-.98-.371-1.522-1.03-1.522-.88 0-1.516 1.085-1.516 2.59 0 1.025.344 1.544 1.007 1.544h-.01zM30.218 9.69a6.564 6.564 0 01-2.01.314c-2.167 0-3.314-1.192-3.314-3.465 0-2.663 1.446-4.61 3.404-4.61 1.6 0 2.624 1.107 2.624 2.82a8.454 8.454 0 01-.247 1.909h-3.858a1.228 1.228 0 00-.02.246c0 .911.584 1.365 1.717 1.365a4.612 4.612 0 002.027-.488l-.299 1.909h-.024zm-1.092-4.606a3.448 3.448 0 000-.386c0-.631-.344-.996-.917-.996-.574 0-1.058.488-1.233 1.382h2.15zM8.544 9.847H6.606l1.11-7.303-2.5 7.303H3.892l-.158-7.252-1.182 7.252H.74L2.254.353h2.8l.072 5.885L7.029.353h3.03L8.544 9.847zm5.022-3.431c-.21 0-.3-.038-.44-.038-1.11 0-1.656.403-1.656 1.174a.702.702 0 00.414.726c.091.041.19.063.29.063.777 0 1.357-.789 1.392-1.925zm1.411 3.43h-1.62l.033-.805a2.35 2.35 0 01-2.06.928c-1.059 0-1.78-.856-1.78-2.102 0-1.892 1.268-2.977 3.435-2.977.265.003.53.02.794.054.04-.166.063-.337.068-.508 0-.51-.343-.7-1.25-.7a5.718 5.718 0 00-1.621.228l-.248.086-.175.054.265-1.734a7.56 7.56 0 012.325-.42c1.673 0 2.556.785 2.556 2.257a10.377 10.377 0 01-.158 1.543l-.402 2.748-.072.492-.052.385-.034.28-.017.192h.013zm30.55-3.43c-.192 0-.298-.038-.44-.038-1.109 0-1.672.403-1.672 1.174a.702.702 0 00.414.726c.091.041.19.063.29.063.794 0 1.374-.789 1.408-1.925zm1.412 3.43h-1.621l.034-.805a2.347 2.347 0 01-2.043.928c-1.058 0-1.78-.856-1.78-2.102 0-1.892 1.268-2.977 3.418-2.977.265.003.53.021.793.054.041-.167.064-.337.07-.508 0-.51-.344-.7-1.251-.7a5.735 5.735 0 00-1.621.228l-.282.069-.175.05.264-1.73a7.478 7.478 0 012.326-.423c1.672 0 2.555.788 2.555 2.26a10.35 10.35 0 01-.158 1.543l-.405 2.73-.055.49-.052.385-.034.263.017.246zm5.444-7.769a.584.584 0 00-.195-.02c-.632 0-1.003.34-1.6 1.262l.174-1.174H49l-1.199 7.722h1.955c.707-4.728.883-5.534 1.817-5.534h.14a8.131 8.131 0 01.74-2.24l-.07-.016z" fill="#FD0C15"/><path fill-rule="evenodd" clip-rule="evenodd" d="M44.208 17.36c0 1.752-.546 2.783-1.411 2.783-.632.017-1.003-.683-1.003-1.707 0-1.226.563-2.629 1.442-2.629.725 0 .972.755.972 1.56v-.006zm1.92.018c0-1.946-.968-3.469-2.785-3.469-2.096 0-3.452 1.84-3.452 4.554 0 1.943.81 3.537 2.782 3.537s3.456-1.4 3.456-4.622zm-5.622-4.818l-.3 2.066a3.157 3.157 0 00-1.62-.505c-1.357 0-2.309 1.471-2.309 3.554 0 1.437.636 2.31 1.694 2.31a3.229 3.229 0 001.556-.498l-.316 2.172a5.055 5.055 0 01-1.622.28c-1.958 0-3.19-1.578-3.19-4.097 0-3.397 1.693-5.776 4.121-5.776a2.8 2.8 0 01.81.102l.74.212c.16.035.313.093.456.174l-.02.007zm-12.033 1.404a.583.583 0 00-.196-.02c-.597 0-.93.34-1.497 1.262l.178-1.174H25.32l-1.113 7.722h1.817c.653-4.728.828-5.534 1.69-5.534a.492.492 0 01.14.017 8.24 8.24 0 01.688-2.24l-.069-.033zm23.763 7.722h-1.718l.09-.755a2.057 2.057 0 01-1.694.86c-1.322 0-2.202-1.28-2.202-3.205 0-2.574 1.357-4.745 2.961-4.745.687 0 1.25.341 1.745 1.068l.402-2.73h1.79l-1.374 9.493v.014zm-2.697-1.823c.862 0 1.443-1.069 1.443-2.608 0-.98-.343-1.506-.969-1.506-.827 0-1.408 1.069-1.408 2.591 0 1.024.316 1.523.934 1.523zm-38.124 1.785a5.589 5.589 0 01-1.865.318c-2.026 0-3.091-1.192-3.091-3.469 0-2.642 1.357-4.605 3.17-4.605 1.498 0 2.45 1.086 2.45 2.82a9.424 9.424 0 01-.227 1.908H8.245a1.454 1.454 0 00-.017.246c0 .891.546 1.349 1.604 1.349a3.976 3.976 0 001.886-.492l-.303 1.925zm-1.03-4.605c0-.157.017-.297.017-.382 0-.632-.316-1-.862-1s-.99.491-1.165 1.365l2.01.017zm22.67 4.605c-.6.211-1.232.319-1.868.318-2.061 0-3.092-1.192-3.092-3.469 0-2.642 1.357-4.605 3.17-4.605 1.498 0 2.467 1.086 2.467 2.82a9.41 9.41 0 01-.227 1.908h-3.624a1.455 1.455 0 00-.017.246c0 .891.546 1.349 1.604 1.349a3.966 3.966 0 001.886-.492l-.299 1.925zm-1.03-4.605c.013-.127.018-.255.017-.382 0-.632-.316-1-.862-1s-.986.491-1.165 1.365l2.01.017zm26.394 4.605a5.75 5.75 0 01-1.866.318c-2.026 0-3.091-1.192-3.091-3.469 0-2.642 1.357-4.605 3.188-4.605 1.497 0 2.449 1.086 2.449 2.82a9.207 9.207 0 01-.23 1.908h-3.614a1.445 1.445 0 00-.017.246c0 .891.546 1.349 1.604 1.349a3.956 3.956 0 001.882-.492l-.298 1.925h-.007zm-1.03-4.605c0-.157.016-.297.016-.382 0-.632-.316-1-.862-1s-.99.491-1.164 1.365l2.01.017zM6.026 14.312a2.602 2.602 0 00-1.518-.437c-.739 0-1.32.157-1.32.928 0 1.366 2.677.857 2.677 3.8 0 2.68-1.763 3.38-3.363 3.38a5.451 5.451 0 01-2.133-.509l.44-1.96c.494.37 1.098.567 1.717.56.58 0 1.463-.157 1.463-1.157 0-1.557-2.68-.98-2.68-3.71 0-2.507 1.567-3.24 3.092-3.24.845 0 1.656.122 2.113.436l-.474 1.909h-.014zm10.71 7.336a3.67 3.67 0 01-1.618.3c-1.587 0-2.573-1.576-2.573-3.502 0-2.523 1.426-4.52 3.525-4.52a3.872 3.872 0 011.717.509l-.405 1.84a2.173 2.173 0 00-1.216-.42c-.969 0-1.673.891-1.673 2.468 0 .912.512 1.663 1.302 1.663.43.002.851-.116 1.216-.342l-.265 1.994-.01.01zm6.804-1.942c-.089.666-.178 1.314-.23 1.997h-1.744l.14-1.243h-.017c-.546.84-1.11 1.417-2.116 1.417-1.092 0-1.69-1.154-1.69-2.642.006-.54.053-1.079.141-1.612l.495-3.574h1.954l-.525 3.591a8.715 8.715 0 00-.124 1.171c0 .458.213.912.742.878.79 0 1.267-.963 1.408-2.103l.546-3.537h1.893l-.862 5.657h-.01zm36.702 1.908h-.302v-1.28h-.422v-.28h1.147v.28h-.422v1.28zm1.955 0h-.282v-1.297l-.264 1.297h-.282l-.264-1.297v1.297h-.282v-1.56h.44l.247 1.226h.017l.248-1.226h.422v1.56z" fill="#F3AE12"/></svg>