<svg width="41" height="22" fill="none" xmlns="http://www.w3.org/2000/svg"><g clip-path="url(#clip0)"><path d="M7.697 3.517a6.332 6.332 0 00-4.314 1.925 6.281 6.281 0 00-1.768 4.366c0 1.628.634 3.193 1.768 4.366a6.332 6.332 0 004.314 1.924H34.02a6.332 6.332 0 004.314-1.924 6.282 6.282 0 001.768-4.366 6.282 6.282 0 00-1.768-4.366 6.332 6.332 0 00-4.314-1.925H7.697z" fill="#fff"/><path d="M34.021 16.634H7.697a6.868 6.868 0 01-4.786-2.032A6.812 6.812 0 01.936 9.808c0-1.794.71-3.517 1.975-4.794a6.868 6.868 0 014.786-2.032H34.02a6.868 6.868 0 014.786 2.032 6.812 6.812 0 011.975 4.794c0 1.794-.71 3.516-1.975 4.794a6.868 6.868 0 01-4.786 2.032zM7.697 3.517a6.332 6.332 0 00-4.314 1.925 6.281 6.281 0 00-1.768 4.366c0 1.628.634 3.193 1.768 4.366a6.332 6.332 0 004.314 1.924H34.02a6.332 6.332 0 004.314-1.924 6.282 6.282 0 001.768-4.366 6.282 6.282 0 00-1.768-4.366 6.332 6.332 0 00-4.314-1.925H7.697z" fill="#D0D0D0"/><path d="M30.863 5.988a1.856 1.856 0 00-1.705 1.142 1.835 1.835 0 00.405 2.007 1.854 1.854 0 003.158-1.306 1.836 1.836 0 00-.542-1.303 1.853 1.853 0 00-1.31-.54h-.006zm.007 2.789a.952.952 0 01-.877-.584.943.943 0 01.692-1.289.953.953 0 01.974.402.943.943 0 01-.79 1.47zm-8.494-2.789a1.857 1.857 0 00-1.71 1.138 1.837 1.837 0 00.4 2.009 1.853 1.853 0 003.16-1.304 1.837 1.837 0 00-1.142-1.703 1.857 1.857 0 00-.708-.14zm0 2.789a.952.952 0 01-.877-.584.941.941 0 01.206-1.03.95.95 0 011.62.668.944.944 0 01-.95.946z" fill="#1D1D1B"/><path d="M28.894 8.828c-.12.034-.24.057-.364.067-.316 0-.387-.108-.387-.41V6.783h.757v-.712h-.757V5.065h-.851l-.178 1.006h-.645c-.485 0-.85.297-1.085.76l-.297-.76h-.61v3.537h1.044V8.066c0-.77.46-1.27 1.004-1.284h.572V8.54c0 .828.425 1.135 1.12 1.135.27.001.54-.042.797-.128l-.12-.72zm5.083-1.638v2.418h-1.014V6.071h.616l.206.54" fill="#1D1D1B"/><path d="M33.781 6.615c.309-.356.73-.627 1.226-.627.845 0 1.192.672 1.192 1.294v2.326h-1.044V7.311c0-.303-.258-.467-.529-.467-.27 0-.481.167-.645.345M16.455 4.79h1.162l1.597 3.03V4.79h.964v4.818h-1.054l-1.705-3.33v3.33h-.964V4.791z" fill="#1D1D1B"/><path d="M39.28 2.982v.172h-.254v.85h-.197v-.85h-.25v-.172h.701zm.142 1.021V2.982h.267l.178.67.18-.67h.271v1.021h-.163v-.799h-.004l-.208.8H39.8l-.21-.8h-.005v.8h-.162zm-23.257 9.874l.241-.374c.246.181.544.279.85.279.349 0 .564-.157.564-.43 0-.315-.272-.399-.72-.553-.4-.14-.795-.341-.795-.908 0-.53.42-.818.985-.818a1.67 1.67 0 01.874.204l-.192.398a1.436 1.436 0 00-.673-.163c-.315 0-.503.118-.503.367 0 .292.219.367.63.5.41.134.902.337.902.964 0 .53-.387.88-1.064.88a1.79 1.79 0 01-1.098-.346m3.075-2.757h1.828v.424h-1.308v.835h1.033v.415h-1.033v.965h1.388v.422h-1.908v-3.06zm2.652 1.534c0-.893.43-1.58 1.29-1.58a1.13 1.13 0 01.903.369l-.303.349a.774.774 0 00-.59-.267c-.503 0-.735.41-.735 1.168 0 .711.245 1.071.74 1.071a.86.86 0 00.638-.322l.306.34a1.153 1.153 0 01-.948.44c-.884 0-1.29-.671-1.29-1.568m3.077.356v-1.89h.525v1.974c0 .421.105.696.55.696.445 0 .552-.275.552-.696V11.12h.529v1.889c0 .76-.293 1.213-1.085 1.213s-1.07-.454-1.07-1.213zm5.366 1.173h-.568l-.59-1.299h-.486v1.299h-.516V11.12h1.002c.62 0 1.105.221 1.105.892a.797.797 0 01-.581.798l.634 1.372zm-1.181-1.699c.387 0 .59-.128.59-.48s-.204-.46-.56-.46h-.493v.94h.463zm2.07-1.364h1.83v.424h-1.31v.835h1.032v.415h-1.032v.965h1.387v.422h-1.907v-3.06zm2.786.001h.774c1.003 0 1.484.54 1.484 1.519 0 .979-.49 1.541-1.458 1.541h-.793l-.007-3.06zm.737 2.635c.718 0 .963-.329.963-1.119 0-.692-.192-1.096-.902-1.096h-.28v2.215h.219z" fill="#B2B2B2"/><path d="M7.666 17.172a7.416 7.416 0 01-4.109-1.241 7.372 7.372 0 01-2.723-3.305 7.337 7.337 0 011.603-8.027 7.423 7.423 0 018.059-1.597 7.39 7.39 0 013.319 2.713 7.344 7.344 0 011.246 4.092 7.359 7.359 0 01-2.169 5.205 7.42 7.42 0 01-5.226 2.16zm0-12.4a5.07 5.07 0 00-3.208 1.143 5.018 5.018 0 00-1.252 6.267 5.049 5.049 0 002.523 2.279 5.075 5.075 0 003.403.167 5.055 5.055 0 002.737-2.022 5.02 5.02 0 00-.629-6.359 5.033 5.033 0 00-3.574-1.474zm8.631-3.462h-.577v.573h.577V1.31zm0-1.146h-.577V.74h.577V.164zM14.636 1.88H14.1v.56h.537v-.56z" fill="#FDC300"/><path d="M13.573 2.98h-.543v.536h.543V2.98zm1.667-.54h-.604v.54h.604v-.54zm-2.21.027h-.54v.513h.54v-.513zm1.606.513H14.1v.536h.537V2.98zM15.72.74h-.57v.57h.57V.74zm-.57.57h-1.052v.57h1.052v-.57zm-1.053.57h-.524v1.1h.524v-1.1zm-.522 1.636v.541h-.543v-.54h-.903v.385h-.483v.48h.54v.536h-.54v-.536h-.572v.84h-.54v.536h-.36v.547h-.397c-.443.658-1.557 2.71-1.893 3.545C6.67 8.168 5.73 7.5 4.988 7.26c-.4-.12-.882.313-.218.997 1.526 1.67 2.007 3.055 2.47 4.16.246.582 1.347.671 1.567.08a17.919 17.919 0 011.957-3.819V8.08h.43v-.54h.454v-.626h.54v-.609h-.547v-.548h.547v.548h.54v-.542h.429v-.656h.473v-.451h.465V3.517h-.52z" fill="#1D1D1B"/><path d="M3.143 19.697h.405v.294a.702.702 0 01.599-.33c.418 0 .823.33.823.913v.006c0 .584-.401.913-.823.913a.722.722 0 01-.599-.31v.807h-.405v-2.293zm1.42.884v-.007c0-.34-.232-.564-.506-.564a.538.538 0 00-.487.355.53.53 0 00-.03.209v.006a.526.526 0 00.517.563c.277 0 .505-.216.505-.563zm.737.006v-.006a.936.936 0 01.938-.942.944.944 0 01.945.934v.008a.917.917 0 01-.587.852.927.927 0 01-.36.063.915.915 0 01-.936-.91zm1.478 0v-.006a.54.54 0 00-.542-.567.53.53 0 00-.531.559v.008a.542.542 0 00.927.401.53.53 0 00.146-.395zm.6-.89h.415l.355 1.206.391-1.213h.344l.395 1.213.363-1.206h.403l-.578 1.773h-.362l-.393-1.203-.399 1.203h-.361l-.573-1.773zm2.875.886v-.006c0-.504.359-.916.863-.916.563 0 .848.439.848.946 0 .036 0 .074-.007.114h-1.293a.49.49 0 00.508.445.646.646 0 00.478-.21l.238.21a.921.921 0 01-1.63-.583h-.005zm1.313-.128c-.025-.257-.18-.463-.447-.463s-.422.19-.46.463h.907zm.82-.758h.403v.396a.627.627 0 01.626-.43v.427h-.023c-.355 0-.603.23-.603.697v.67h-.403v-1.76zm1.264.886v-.006c0-.504.358-.916.864-.916.562 0 .846.439.846.946 0 .036 0 .074-.006.114h-1.298a.49.49 0 00.508.445.647.647 0 00.479-.21l.237.21a.893.893 0 01-.722.33.884.884 0 01-.845-.56.877.877 0 01-.058-.353h-.004zm1.313-.128c-.027-.257-.18-.463-.45-.463-.247 0-.42.19-.457.463h.907zm.731.125v-.006c0-.583.399-.913.82-.913a.734.734 0 01.602.31v-.948h.405v2.434h-.408v-.293a.707.707 0 01-.602.329c-.414 0-.82-.33-.82-.912h.003zm1.427 0v-.006a.527.527 0 00-.516-.564c-.279 0-.51.213-.51.564v.006a.522.522 0 00.51.563.532.532 0 00.516-.563zm2.314.603v.274h-.405v-2.434h.405v.968a.702.702 0 01.598-.33c.418 0 .823.33.823.913v.006c0 .584-.4.913-.823.913a.722.722 0 01-.598-.31zm1.01-.602v-.007c0-.34-.231-.564-.506-.564a.535.535 0 00-.516.564v.006a.527.527 0 00.516.563c.279 0 .506-.216.506-.563zm.681 1.312l.137-.3a.488.488 0 00.237.067c.115 0 .184-.05.252-.203l-.737-1.76h.432l.502 1.306.453-1.306h.421l-.703 1.81c-.139.36-.296.493-.581.493a.826.826 0 01-.418-.107" fill="#B2B2B2"/><path d="M24.024 19.124h.456l.705 1.792.703-1.792h.445l-.974 2.35H25l-.975-2.35zm2.393 1.459v-.006c0-.504.357-.916.863-.916.563 0 .846.439.846.946 0 .036 0 .074-.006.114h-1.298a.49.49 0 00.508.445.646.646 0 00.479-.21l.237.21a.894.894 0 01-.722.33.884.884 0 01-.845-.56.873.873 0 01-.058-.353h-.004zm1.312-.128c-.027-.257-.18-.463-.449-.463-.248 0-.42.19-.458.463h.907zm.819-.758h.405v.396a.626.626 0 01.626-.43v.427h-.024c-.354 0-.602.23-.602.697v.67h-.405v-1.76zm1.362-.653h.435v.385h-.435v-.385zm.017.653h.405v1.76h-.405v-1.76zm.824 1.42l.248-.294c.198.192.463.3.739.303.258 0 .415-.117.415-.293 0-.166-.094-.256-.529-.357-.497-.12-.773-.265-.773-.696 0-.4.334-.677.8-.677.308-.006.61.098.848.294l-.22.31a1.066 1.066 0 00-.637-.24c-.24 0-.386.128-.386.276v.008c0 .18.107.256.555.366.495.12.752.296.752.683 0 .437-.344.696-.837.696a1.449 1.449 0 01-.976-.372m2.261-2.08h.435v.385h-.435v-.385zm.017.653h.405v1.76h-.405v-1.76zm.914 2.09l.151-.303c.187.121.405.186.628.186.363 0 .559-.186.559-.54v-.136a.74.74 0 01-.622.323.797.797 0 01-.75-.51.788.788 0 01-.052-.314v-.006a.791.791 0 01.8-.821.763.763 0 01.619.3v-.264h.413v1.4a.896.896 0 01-.225.663c-.16.16-.407.236-.726.236-.277.003-.55-.07-.79-.21l-.005-.004zm1.347-1.289v-.006a.493.493 0 00-.516-.487.481.481 0 00-.466.294.475.475 0 00-.036.19v.007a.476.476 0 00.31.454.483.483 0 00.192.031.498.498 0 00.473-.292.491.491 0 00.043-.19zm.915-.801h.405v.273a.637.637 0 01.552-.31c.398 0 .628.267.628.676v1.12h-.405v-.999c0-.274-.137-.43-.377-.43s-.398.163-.398.437v.993h-.405v-1.76z" fill="#A50343"/></g><defs><clipPath id="clip0"><path fill="#fff" transform="translate(.27 .164)" d="M0 0h40.604v21.835H0z"/></clipPath></defs></svg>