<svg width="45" height="30" fill="none" xmlns="http://www.w3.org/2000/svg"><rect x=".25" y=".25" width="44.5" height="29.5" rx="3.75" fill="#fff" stroke="#D2D2D2" stroke-width=".5"/><path d="M8.44 10H5.562a.4.4 0 00-.395.338l-1.164 7.38a.24.24 0 00.237.276h1.374a.4.4 0 00.395-.338l.314-1.99a.4.4 0 01.395-.338h.911c1.896 0 2.99-.917 3.276-2.735.128-.796.005-1.42-.367-1.858-.41-.48-1.135-.735-2.098-.735zm.332 2.695c-.157 1.033-.946 1.033-1.71 1.033h-.434l.305-1.929a.24.24 0 01.237-.202h.199c.52 0 1.01 0 1.263.296.151.177.198.44.14.802zm8.27-.033h-1.378a.24.24 0 00-.237.202l-.06.386-.097-.14c-.298-.433-.964-.578-1.628-.578-1.523 0-2.823 1.154-3.077 2.772-.131.807.056 1.579.514 2.117.42.495 1.02.701 1.736.701 1.227 0 1.907-.789 1.907-.789l-.061.383a.24.24 0 00.236.278h1.242a.4.4 0 00.395-.338l.745-4.717a.24.24 0 00-.236-.277zm-1.92 2.682c-.133.788-.758 1.316-1.555 1.316-.4 0-.72-.128-.926-.371-.203-.242-.28-.586-.216-.969.124-.78.76-1.326 1.544-1.326.392 0 .71.13.92.375.21.248.293.594.232.975zm9.26-2.682h-1.385a.402.402 0 00-.33.175l-1.91 2.814-.81-2.704a.402.402 0 00-.384-.285h-1.361a.24.24 0 00-.228.317l1.526 4.477-1.434 2.024a.24.24 0 00.195.38h1.383a.399.399 0 00.329-.172l4.606-6.65a.24.24 0 00-.197-.376z" fill="#253B80"/><path d="M28.967 10H26.09a.4.4 0 00-.395.338l-1.164 7.38a.24.24 0 00.237.276h1.477a.28.28 0 00.276-.236l.33-2.092a.4.4 0 01.395-.338h.91c1.897 0 2.99-.917 3.277-2.735.129-.795.005-1.42-.368-1.858-.408-.48-1.133-.735-2.097-.735zm.332 2.696c-.157 1.032-.945 1.032-1.709 1.032h-.434l.305-1.928a.24.24 0 01.237-.203h.199c.52 0 1.01 0 1.263.297.151.176.197.439.14.802zm8.27-.034h-1.377a.238.238 0 00-.236.203l-.061.385-.097-.14c-.298-.432-.963-.577-1.627-.577-1.523 0-2.823 1.153-3.077 2.771-.131.807.055 1.58.513 2.117.421.495 1.021.701 1.736.701 1.227 0 1.907-.789 1.907-.789l-.06.383a.24.24 0 00.236.278h1.241a.399.399 0 00.395-.338l.745-4.717a.24.24 0 00-.237-.277zm-1.92 2.683a1.535 1.535 0 01-1.555 1.316c-.4 0-.72-.129-.926-.372-.203-.242-.28-.585-.216-.968.125-.78.76-1.327 1.544-1.327.392 0 .71.13.92.376.21.248.294.593.233.975zm3.545-5.142l-1.18 7.515a.24.24 0 00.236.276h1.187a.4.4 0 00.395-.337l1.165-7.38a.241.241 0 00-.136-.255.24.24 0 00-.1-.022h-1.33a.24.24 0 00-.237.203z" fill="#179BD7"/></svg>