<svg width="15" height="15" fill="none" xmlns="http://www.w3.org/2000/svg"><path d="M14.993 11.835a.725.725 0 01-.223.635l-2.111 2.096a1.19 1.19 0 01-.374.27 1.541 1.541 0 01-.452.143l-.095.008a2.151 2.151 0 01-.207.008c-.201 0-.527-.034-.976-.103-.45-.069-1-.238-1.652-.508-.651-.27-1.39-.675-2.215-1.215-.826-.54-1.704-1.281-2.636-2.223A17.397 17.397 0 012.21 8.85 14.935 14.935 0 011.035 7a9.964 9.964 0 01-.667-1.54 8.172 8.172 0 01-.302-1.191 3.933 3.933 0 01-.063-.787c.01-.19.016-.296.016-.317.02-.148.068-.3.142-.453a1.19 1.19 0 01.27-.373L2.543.227a.7.7 0 01.508-.222c.138 0 .26.04.366.119.106.08.196.177.27.294L5.386 3.64c.095.17.122.355.08.556a.99.99 0 01-.27.508l-.779.778a.265.265 0 00-.055.104.392.392 0 00-.024.119c.042.222.137.476.286.762.127.254.322.564.587.929.265.365.64.786 1.128 1.262.476.487.9.866 1.27 1.136.37.27.68.468.929.595.249.127.44.204.572.23l.198.04a.377.377 0 00.103-.024.265.265 0 00.103-.055l.905-.921a.973.973 0 01.667-.255.83.83 0 01.43.096h.015l3.065 1.81c.222.138.354.312.397.524z" fill="#6DB056"/></svg>