<svg width="46" height="22" fill="none" xmlns="http://www.w3.org/2000/svg"><g clip-path="url(#clip0)"><path d="M2.09 4.569h28.405v13.027H2.09a1.32 1.32 0 01-.924-.374 1.263 1.263 0 01-.384-.902V5.846c0-.339.138-.663.383-.903.246-.24.578-.374.925-.374z" fill="#3E404F"/><path d="M46 2.005L44.175.165c-1.47 1.437-5.94 1.495-7.47 0-1.529 1.495-5.999 1.437-7.47 0l-1.822 1.84s1.117 1.953 1.117 3.62c0 2.758-1.117 3.792-1.117 7.412 0 6.608 7.94 7.93 9.291 8.964 1.47-1.034 9.292-2.356 9.292-8.964 0-3.62-1.117-4.54-1.117-7.412.002-1.668 1.12-3.62 1.12-3.62z" fill="url(#paint0_linear)"/><path d="M35.895 12.574l-3.603-3.52-1.493 1.459 5.096 4.978 7.434-7.264-1.492-1.458-5.943 5.805zm-28.348-4.5h-.858v-.189a.881.881 0 00-.138-.497c-.093-.14-.248-.209-.467-.209a.55.55 0 00-.286.066.572.572 0 00-.177.164.692.692 0 00-.092.242 1.545 1.545 0 00-.025.283 2.75 2.75 0 00.012.288.466.466 0 00.21.359c.084.053.172.097.265.131l.656.257c.167.058.324.143.463.25a1.1 1.1 0 01.277.334c.065.142.107.292.126.447.024.19.035.38.034.57.002.231-.024.462-.076.687a1.433 1.433 0 01-.244.538c-.121.155-.28.278-.462.359a1.66 1.66 0 01-.698.134 1.568 1.568 0 01-.577-.106 1.384 1.384 0 01-.883-1.282v-.312h.857v.263a.674.674 0 00.139.415c.092.123.248.184.467.184a.77.77 0 00.34-.061.457.457 0 00.19-.177.643.643 0 00.08-.275 4.615 4.615 0 00-.005-.737.64.64 0 00-.067-.239.476.476 0 00-.158-.147 2.12 2.12 0 00-.256-.123l-.614-.247c-.37-.148-.618-.344-.744-.587-.126-.244-.189-.55-.189-.916-.001-.212.03-.422.092-.625.056-.186.15-.36.278-.508.121-.146.275-.262.45-.341.205-.09.428-.133.653-.126a1.463 1.463 0 011.042.419 1.27 1.27 0 01.387.904l-.002.41zm.639 4.165V6.392h2.553v.789H9.043v1.716h1.48v.789h-1.48v1.716h1.696v.839l-2.553-.002zm5.834-1.669v.361c.001.176-.034.35-.105.513a1.395 1.395 0 01-.722.733c-.167.075-.35.113-.533.111-.168 0-.335-.023-.496-.065a1.19 1.19 0 01-.455-.23 1.273 1.273 0 01-.331-.424c-.088-.17-.131-.391-.131-.66v-3.22a1.387 1.387 0 01.101-.535c.064-.16.162-.305.286-.427.126-.122.276-.218.441-.283.18-.07.373-.105.568-.102.403 0 .731.128.984.386a1.4 1.4 0 01.29.447c.071.18.107.372.104.565v.328h-.858v-.28a.67.67 0 00-.143-.426.462.462 0 00-.387-.18c-.213 0-.355.064-.424.192a1 1 0 00-.105.489v2.99a.761.761 0 00.113.427c.076.115.212.172.408.172a.61.61 0 00.18-.028.546.546 0 00.182-.095.503.503 0 00.126-.18.716.716 0 00.052-.288v-.291h.855zm3.473-4.18v4.535a1.3 1.3 0 01-.402.96 1.374 1.374 0 01-.984.403 1.342 1.342 0 01-.533-.106 1.442 1.442 0 01-.744-.728 1.27 1.27 0 01-.11-.53V6.391h.858v4.451c0 .209.05.363.151.462a.557.557 0 00.757 0c.1-.098.151-.252.151-.462V6.391h.856zm.806 5.849V6.392h1.378c1.01 0 1.514.572 1.514 1.717 0 .345-.055.638-.164.879-.11.24-.301.434-.576.582l.925 2.666h-.908l-.8-2.497h-.512v2.497l-.857.003zm.857-5.06v1.823h.488a.882.882 0 00.361-.061.484.484 0 00.21-.177.768.768 0 00.093-.283 2.995 2.995 0 000-.78.76.76 0 00-.101-.292c-.105-.153-.307-.23-.605-.23h-.446zm2.725 5.06V6.392h2.556v.789H22.74v1.716h1.48v.789h-1.48v1.716h1.698v.839l-2.556-.002zM5.958 13.885h-.394v-.087a.403.403 0 00-.064-.23.236.236 0 00-.215-.095.254.254 0 00-.131.03.266.266 0 00-.082.076.322.322 0 00-.042.11.703.703 0 00-.012.131c0 .044.002.088.006.133a.249.249 0 00.029.094c.017.029.04.053.068.072a.601.601 0 00.122.06l.301.118a.758.758 0 01.213.115.502.502 0 01.128.154.71.71 0 01.058.205c.01.087.016.175.015.263.001.106-.01.212-.034.316a.655.655 0 01-.113.247.555.555 0 01-.212.167.774.774 0 01-.321.06.72.72 0 01-.268-.051.632.632 0 01-.353-.339.603.603 0 01-.053-.251v-.144h.394v.121c0 .069.022.136.064.191.043.057.114.085.215.085a.357.357 0 00.158-.028.208.208 0 00.087-.082.286.286 0 00.036-.126 1.97 1.97 0 00-.001-.339.302.302 0 00-.031-.109.22.22 0 00-.072-.068.9.9 0 00-.118-.057l-.283-.113c-.17-.069-.284-.159-.342-.27a.912.912 0 01-.087-.422c0-.097.014-.194.043-.287A.637.637 0 015 13.144a.706.706 0 01.3-.06.665.665 0 01.479.191.585.585 0 01.178.416v.194zm1.572 0h-.395v-.087a.406.406 0 00-.064-.23.236.236 0 00-.216-.095.255.255 0 00-.132.03.26.26 0 00-.081.076.304.304 0 00-.043.11.702.702 0 00-.012.131c0 .044.002.088.006.133a.252.252 0 00.03.094c.016.03.04.054.067.072a.614.614 0 00.122.06l.302.118a.755.755 0 01.21.115.502.502 0 01.127.154.71.71 0 01.059.205c.01.087.015.175.015.263 0 .106-.01.212-.035.316a.655.655 0 01-.112.247.555.555 0 01-.213.167.772.772 0 01-.321.06.713.713 0 01-.48-.188.661.661 0 01-.141-.202.603.603 0 01-.053-.251v-.144h.395v.121c0 .069.022.136.064.191a.247.247 0 00.215.085.361.361 0 00.157-.028.208.208 0 00.087-.082.286.286 0 00.036-.126 1.956 1.956 0 00-.001-.339.302.302 0 00-.031-.109.223.223 0 00-.072-.068.966.966 0 00-.118-.057l-.282-.113c-.17-.068-.285-.158-.343-.27a.913.913 0 01-.087-.422c0-.097.014-.194.043-.287a.646.646 0 01.128-.234.576.576 0 01.206-.157.707.707 0 01.3-.06.67.67 0 01.48.191.585.585 0 01.177.416l.005.194zm.293 1.915v-2.69h.396v2.308h.782v.383H7.823zm2.151 0v-2.69h1.177v.363h-.78v.79h.683v.362h-.682v.79h.781v.386H9.974zm1.416 0v-2.69h.38l.597 1.622h.007V13.11h.395v2.69h-.371l-.604-1.617h-.008v1.618h-.395zm2.987-.768v.166a.582.582 0 01-.048.236.65.65 0 01-.333.337.596.596 0 01-.245.051.907.907 0 01-.228-.03.542.542 0 01-.21-.107.586.586 0 01-.153-.194.672.672 0 01-.06-.304v-1.48a.647.647 0 01.046-.246.578.578 0 01.335-.327.694.694 0 01.262-.047.611.611 0 01.453.178.647.647 0 01.181.461v.152h-.394v-.129a.308.308 0 00-.066-.197.209.209 0 00-.178-.083c-.098 0-.163.03-.195.09a.471.471 0 00-.049.224v1.376a.347.347 0 00.053.197.204.204 0 00.187.08.295.295 0 00.083-.014.21.21 0 00.142-.127.337.337 0 00.023-.132v-.131h.394zm.321.768v-2.69h.635c.464 0 .696.263.696.79a.973.973 0 01-.075.404.58.58 0 01-.262.269l.425 1.23h-.42l-.367-1.148h-.236V15.8h-.396zm.395-2.328v.842h.225a.404.404 0 00.166-.029.227.227 0 00.097-.08.37.37 0 00.043-.132 1.4 1.4 0 000-.359.357.357 0 00-.047-.133c-.049-.071-.142-.106-.278-.106l-.206-.002zm1.552 2.328v-1.137l-.542-1.553h.42l.315 1.07h.008l.315-1.07h.42l-.542 1.553v1.138h-.394zm1.134 0v-2.69h.591a.9.9 0 01.287.041.58.58 0 01.364.395c.029.126.041.255.038.384.001.103-.006.206-.021.308a.636.636 0 01-.308.44.742.742 0 01-.356.072h-.2v1.05h-.395zm.394-2.328v.915h.19a.402.402 0 00.185-.034.216.216 0 00.097-.094.345.345 0 00.037-.14c.004-.055.006-.117.006-.185 0-.069 0-.123-.005-.18a.386.386 0 00-.034-.15.215.215 0 00-.093-.097.37.37 0 00-.178-.034h-.205zm1.438 2.328v-2.328h-.457v-.362h1.309v.363h-.457V15.8h-.395zm1.038 0v-2.69h.395v2.69h-.395zm.755-2.055a.617.617 0 01.425-.616.72.72 0 01.69.12.642.642 0 01.21.496v1.421c.002.1-.018.2-.058.291a.601.601 0 01-.151.2.701.701 0 01-.69.125.626.626 0 01-.21-.125.58.58 0 01-.216-.491v-1.421zm.394 1.421a.252.252 0 00.08.205.298.298 0 00.375 0 .256.256 0 00.079-.205v-1.421a.25.25 0 00-.08-.205.298.298 0 00-.375 0 .256.256 0 00-.079.205v1.421zm1.262.634v-2.69h.379l.596 1.622h.007V13.11h.395v2.69h-.372l-.603-1.617h-.008v1.618h-.394z" fill="#fff"/></g><defs><linearGradient id="paint0_linear" x1="31.875" y1="-3.003" x2="45.382" y2="30.018" gradientUnits="userSpaceOnUse"><stop stop-color="#E4F801"/><stop offset="1" stop-color="#2B7901"/></linearGradient><clipPath id="clip0"><path fill="#fff" transform="translate(.782 .164)" d="M0 0h45.218v21.835H0z"/></clipPath></defs></svg>