<svg width="200" height="80" viewBox="0 0 200 80" fill="none" xmlns="http://www.w3.org/2000/svg">
<path fill-rule="evenodd" clip-rule="evenodd" d="M0 40C0 17.9435 17.9442 0 39.9996 0C62.0566 0 80 17.9435 80 40C80 62.0565 62.0558 80 39.9996 80C17.9442 80 0 62.0565 0 40ZM1.39369 40C1.39369 61.2873 18.7125 78.6063 39.9996 78.6063C61.2875 78.6063 78.6063 61.2873 78.6055 40C78.6055 18.7119 61.2875 1.39371 39.9996 1.39371C18.7117 1.39371 1.39369 18.7127 1.39369 40ZM52.31 42.7117C53.8009 42.7117 54.7913 41.5126 54.7913 40.0773C54.7913 38.6694 53.7735 37.4429 52.2817 37.4429C50.804 37.4429 49.8136 38.6412 49.8136 40.0773C49.8136 41.4851 50.8323 42.7117 52.31 42.7117ZM38.8753 14.559L39.9763 11.7849L41.064 14.559H38.8753ZM40.0004 76.5864C60.2064 76.5864 76.5864 60.2062 76.5864 40C76.5864 19.7937 60.2056 3.41353 40.0004 3.41353C19.7944 3.41353 3.41437 19.7937 3.41437 40C3.41437 60.2062 19.7944 76.5864 40.0004 76.5864ZM15.3655 39.3937L19.1849 44.9561V44.9569H15.9385L13.4837 41.3321L12.4941 42.4331V44.9561H9.78909V35.1977H12.4941V39.1567L15.8536 35.1977H19.0601L15.3655 39.3937ZM26.5159 42.656H31.758H31.7588V44.9553H23.8399V35.1968H31.6882V37.4969H26.5159V38.9755H31.2V41.1084H26.5159V42.656ZM37.3835 18.4067H34.5396L38.694 8.57755H41.301L45.4554 18.4067H42.5566L41.8448 16.6637H38.0803L37.3835 18.4067ZM41.3525 37.5676V44.9561H38.6475V37.5676H35.7204V35.1977H44.2796V37.5676H41.3525ZM38.62 58.1289V48.6433H41.3392V58.1289H38.62ZM42.2248 61.5791H45.1935L41.2344 71.4082H38.7248L34.7658 61.5791H37.791L40.0079 67.7551L42.2248 61.5791ZM41.6685 26.0546L45.4887 31.6169V31.6178H42.2406L39.7875 27.993L38.798 29.0948V31.6178H36.0938V21.8585H38.798V25.8176L42.1575 21.8585H45.364L41.6685 26.0546ZM52.31 35.0031C55.321 35.0031 57.5521 37.2475 57.5521 40.0773C57.5521 42.8797 55.2944 45.1515 52.2825 45.1515C49.2706 45.1515 47.0404 42.9071 47.0404 40.0773C47.0404 37.2757 49.298 35.0031 52.31 35.0031ZM70.2816 35.1977V44.9561H67.9116L63.7439 39.6033V44.9561H61.0671V35.1977H63.59L67.6048 40.3559V35.1977H70.2816Z" fill="url(#paint0_linear_1183_1310)"/>
<path d="M97.1826 30.3596L94.5349 33.1313V38.1373H90V18.3394H94.5349V27.5878L103.267 18.3394H108.337L100.168 27.1636L108.816 38.1373H103.492L97.1826 30.3596Z" fill="black"/>
<path d="M128.933 34.4606V38.1373H113.667V18.3394H128.567V22.0161H118.202V26.3151H127.356V29.8787H118.202V34.4606H128.933Z" fill="black"/>
<path d="M139.465 22.0727H133.156V18.3394H150.337V22.0727H144.028V38.1373H139.465V22.0727Z" fill="black"/>
<path d="M164.883 38.4767C162.836 38.4767 160.986 38.0336 159.334 37.1474C157.7 36.2612 156.414 35.0451 155.475 33.4989C154.555 31.934 154.095 30.1804 154.095 28.2383C154.095 26.2963 154.555 24.5522 155.475 23.006C156.414 21.4411 157.7 20.2155 159.334 19.3293C160.986 18.4431 162.836 18 164.883 18C166.93 18 168.77 18.4431 170.404 19.3293C172.037 20.2155 173.324 21.4411 174.262 23.006C175.201 24.5522 175.671 26.2963 175.671 28.2383C175.671 30.1804 175.201 31.934 174.262 33.4989C173.324 35.0451 172.037 36.2612 170.404 37.1474C168.77 38.0336 166.93 38.4767 164.883 38.4767ZM164.883 34.5737C166.047 34.5737 167.099 34.3097 168.038 33.7818C168.976 33.235 169.709 32.4808 170.235 31.5191C170.779 30.5575 171.051 29.4639 171.051 28.2383C171.051 27.0128 170.779 25.9192 170.235 24.9576C169.709 23.9959 168.976 23.2512 168.038 22.7232C167.099 22.1764 166.047 21.903 164.883 21.903C163.719 21.903 162.667 22.1764 161.728 22.7232C160.789 23.2512 160.047 23.9959 159.503 24.9576C158.977 25.9192 158.714 27.0128 158.714 28.2383C158.714 29.4639 158.977 30.5575 159.503 31.5191C160.047 32.4808 160.789 33.235 161.728 33.7818C162.667 34.3097 163.719 34.5737 164.883 34.5737Z" fill="black"/>
<path d="M200 18.3394V38.1373H196.254L186.424 26.1171V38.1373H181.917V18.3394H185.691L195.493 30.3596V18.3394H200Z" fill="black"/>
<path d="M105.576 58.7577H96.4221L94.6757 63.0001H90L98.7881 43.2021H103.295L112.111 63.0001H107.323L105.576 58.7577ZM104.14 55.2789L101.013 47.6991L97.8868 55.2789H104.14Z" fill="black"/>
<path d="M124.156 55.2223L121.508 57.994V63.0001H116.973V43.2021H121.508V52.4506L130.24 43.2021H135.31L127.142 52.0264L135.789 63.0001H130.465L124.156 55.2223Z" fill="black"/>
<path d="M143.377 46.9355H137.067V43.2021H154.249V46.9355H147.94V63.0001H143.377V46.9355Z" fill="black"/>
<path d="M159.521 43.2021H164.084V63.0001H159.521V43.2021Z" fill="black"/>
<path d="M190.426 43.2021L181.892 63.0001H177.385L168.879 43.2021H173.808L179.807 57.3435L185.891 43.2021H190.426Z" fill="black"/>
<defs>
<linearGradient id="paint0_linear_1183_1310" x1="-3.72529e-07" y1="80" x2="81.0906" y2="78.8788" gradientUnits="userSpaceOnUse">
<stop stop-color="#D94728"/>
<stop offset="1" stop-color="#E8A91D"/>
</linearGradient>
</defs>
</svg>
