<svg width="45" height="22" fill="none" xmlns="http://www.w3.org/2000/svg"><path d="M2.368 7.816L0 .656h1.012l1.132 3.528c.31.965.58 1.838.773 2.674h.021c.205-.827.506-1.73.829-2.664L4.993.657h1.002L3.4 7.817H2.368zm4.122-2.4c.023 1.264.84 1.782 1.786 1.782a3.45 3.45 0 001.445-.266l.161.67a4.24 4.24 0 01-1.732.319c-1.604 0-2.562-1.041-2.562-2.59 0-1.55.927-2.772 2.442-2.772 1.7 0 2.156 1.476 2.156 2.42a3.7 3.7 0 01-.034.437H6.49zm2.776-.67c0-.595-.241-1.52-1.313-1.52-.964 0-1.375.873-1.445 1.52h2.758zm1.659-.469c0-.604-.012-1.124-.043-1.602h.828l.031 1.008h.044a1.54 1.54 0 01.537-.795c.26-.202.577-.317.908-.33.09-.001.18.01.267.031v.882a1.415 1.415 0 00-.322-.033c-.665 0-1.14.5-1.27 1.2a2.62 2.62 0 00-.043.438v2.74h-.937V4.277zm4.186-3.047a.546.546 0 01-.17.42.563.563 0 01-.432.155.573.573 0 01-.41-.168.559.559 0 01-.16-.407.563.563 0 01.168-.418.578.578 0 01.424-.167.57.57 0 01.42.167.556.556 0 01.16.418zm-1.055 1.445h.949v5.139h-.949V2.675zm2.184 5.141v-4.43h-.722v-.713h.723v-.238c0-.713.161-1.381.602-1.795a1.83 1.83 0 011.271-.475 2.2 2.2 0 01.807.15l-.13.713A1.418 1.418 0 0018.19.91c-.807 0-1.012.713-1.012 1.488v.276h1.258v.713h-1.258v4.43l-.936-.002zm4.184-6.586a.577.577 0 01-.184.386.592.592 0 01-.804 0 .577.577 0 01-.185-.386.563.563 0 01.17-.418.58.58 0 01.423-.167.57.57 0 01.544.36c.028.071.04.148.036.225zM19.37 2.675h.947v5.139h-.947V2.675zm2.615 2.741c.022 1.264.838 1.782 1.787 1.782.496.016.989-.075 1.445-.266l.162.67a4.264 4.264 0 01-1.735.319c-1.604 0-2.56-1.041-2.56-2.59 0-1.55.925-2.772 2.44-2.772 1.703 0 2.153 1.476 2.153 2.42a3.2 3.2 0 01-.031.437h-3.661zm2.774-.67c0-.595-.24-1.52-1.312-1.52-.963 0-1.375.873-1.445 1.52h2.758zM30.918.274v6.214c0 .456 0 .977.041 1.328h-.848l-.043-.893h-.024c-.17.315-.427.577-.74.756a1.947 1.947 0 01-1.035.252c-1.26 0-2.226-1.051-2.226-2.615 0-1.71 1.065-2.76 2.334-2.76.795 0 1.334.371 1.57.785h.022V.274h.95zm-.949 4.493a1.706 1.706 0 00-.04-.395 1.372 1.372 0 00-.49-.78 1.404 1.404 0 00-.879-.301c-.98 0-1.56.848-1.56 1.987 0 1.04.515 1.901 1.54 1.901.326-.001.641-.113.894-.316.252-.202.427-.484.494-.798.03-.133.044-.269.041-.405v-.893zm4.456 3.049c.022-.351.04-.872.04-1.328V.274h.938v3.228h.024a1.92 1.92 0 01.751-.723 1.948 1.948 0 011.024-.228c1.29 0 2.204 1.063 2.194 2.615 0 1.837-1.173 2.75-2.334 2.75-.354.02-.706-.06-1.015-.23a1.84 1.84 0 01-.729-.735h-.03l-.047.851-.816.014zm.978-2.06c.004.114.02.228.046.34.078.312.26.59.517.788.258.198.575.306.901.305.99 0 1.583-.796 1.583-1.975 0-1.03-.54-1.902-1.55-1.902a1.52 1.52 0 00-.92.329 1.49 1.49 0 00-.524.817 1.8 1.8 0 00-.056.382l.003.916zm5.029-3.081l1.139 3.038c.118.34.24.744.332 1.05h.022c.099-.306.205-.713.335-1.072l1.033-3.016h1.002L42.87 6.338c-.676 1.764-1.139 2.667-1.784 3.218a2.58 2.58 0 01-1.161.607l-.241-.787a2.47 2.47 0 00.828-.457 2.86 2.86 0 00.798-1.04.64.64 0 00.074-.224.797.797 0 00-.065-.238L39.394 2.68l1.038-.005zm-24.724 8.647l-2.87 7.165-1.161-6.09a1.265 1.265 0 00-.434-.77 1.294 1.294 0 00-.838-.305H5.703l-.062.305c.94.187 1.853.487 2.719.893.407.222.523.412.653.928l2.204 8.4h2.916l4.47-10.525h-2.895zm4.082 0l-2.28 10.526h2.76l2.276-10.526h-2.755zm6.386 2.917c0-.376.373-.777 1.17-.884a5.314 5.314 0 012.72.475l.481-2.232a7.499 7.499 0 00-2.58-.475c-2.728 0-4.643 1.426-4.662 3.485-.015 1.511 1.37 2.357 2.408 2.852 1.038.494 1.445.844 1.428 1.31 0 .713-.857 1.015-1.647 1.026a5.872 5.872 0 01-2.835-.66l-.498 2.305a8.458 8.458 0 003.068.559c2.89 0 4.79-1.414 4.8-3.601.012-2.781-3.89-2.933-3.853-4.174m7.979 3.895l1.467-3.952.826 3.953h-2.293zm1.048-6.798a1.27 1.27 0 00-.708.209c-.21.137-.373.334-.468.564l-4.137 9.746h2.89l.575-1.572h3.539l.332 1.572h2.558l-2.226-10.526-2.355.008z" fill="#1A1F71"/></svg>