<svg width="45" height="30" fill="none" xmlns="http://www.w3.org/2000/svg"><rect x=".25" y=".25" width="44.5" height="29.5" rx="3.75" fill="#fff" stroke="#D2D2D2" stroke-width=".5"/><path d="M20.6 20.507h-2.916l1.824-11.302h2.916L20.6 20.507zM31.172 9.481A7.174 7.174 0 0028.556 9c-2.88 0-4.908 1.539-4.92 3.74-.024 1.623 1.452 2.524 2.556 3.066 1.128.553 1.511.914 1.511 1.407-.011.757-.911 1.106-1.751 1.106-1.164 0-1.788-.18-2.736-.601l-.384-.181-.408 2.537c.684.312 1.944.59 3.252.602 3.06 0 5.052-1.515 5.076-3.86.011-1.287-.768-2.273-2.448-3.078-1.02-.517-1.645-.866-1.645-1.395.012-.481.529-.974 1.68-.974a4.945 4.945 0 012.172.433l.264.12.397-2.44zm3.876 7.022c.24-.649 1.164-3.162 1.164-3.162-.012.024.24-.661.384-1.082l.203.974s.553 2.705.672 3.27h-2.423zm3.6-7.298h-2.256c-.696 0-1.225.204-1.525.938l-4.331 10.364h3.06l.612-1.695h3.744c.084.397.348 1.695.348 1.695H41L38.647 9.205zm-23.4 0l-2.856 7.707-.312-1.563c-.528-1.803-2.184-3.763-4.032-4.737l2.616 9.883h3.084l4.584-11.29h-3.084z" fill="#00579F"/><path d="M9.74 9.205H5.048L5 9.433c3.66.938 6.084 3.2 7.08 5.917l-1.02-5.195c-.168-.722-.684-.926-1.32-.95z" fill="#FAA61A"/></svg>